<svg width="25" height="25" viewBox="0 0 25 25" fill="none" xmlns="http://www.w3.org/2000/svg">
<path d="M15.8569 10.8843V6.38433C15.8569 5.38977 15.4618 4.43594 14.7586 3.73268C14.0553 3.02942 13.1015 2.63433 12.1069 2.63433C11.1124 2.63433 10.1585 3.02942 9.45527 3.73268C8.75201 4.43594 8.35692 5.38977 8.35692 6.38433V10.8843M19.7129 8.89133L20.9759 20.8913C21.0459 21.5563 20.5259 22.1343 19.8569 22.1343H4.35692C4.19913 22.1345 4.04306 22.1015 3.89887 22.0374C3.75467 21.9733 3.62557 21.8796 3.51994 21.7624C3.41432 21.6452 3.33453 21.507 3.28577 21.357C3.23701 21.2069 3.22037 21.0483 3.23692 20.8913L4.50092 8.89133C4.53007 8.61489 4.66054 8.35903 4.86717 8.17309C5.07379 7.98714 5.34194 7.88428 5.61992 7.88433H18.5939C19.1699 7.88433 19.6529 8.31933 19.7129 8.89133ZM8.73192 10.8843C8.73192 10.9838 8.69241 11.0792 8.62208 11.1495C8.55176 11.2198 8.45637 11.2593 8.35692 11.2593C8.25746 11.2593 8.16208 11.2198 8.09175 11.1495C8.02143 11.0792 7.98192 10.9838 7.98192 10.8843C7.98192 10.7849 8.02143 10.6895 8.09175 10.6192C8.16208 10.5488 8.25746 10.5093 8.35692 10.5093C8.45637 10.5093 8.55176 10.5488 8.62208 10.6192C8.69241 10.6895 8.73192 10.7849 8.73192 10.8843ZM16.2319 10.8843C16.2319 10.9838 16.1924 11.0792 16.1221 11.1495C16.0518 11.2198 15.9564 11.2593 15.8569 11.2593C15.7575 11.2593 15.6621 11.2198 15.5918 11.1495C15.5214 11.0792 15.4819 10.9838 15.4819 10.8843C15.4819 10.7849 15.5214 10.6895 15.5918 10.6192C15.6621 10.5488 15.7575 10.5093 15.8569 10.5093C15.9564 10.5093 16.0518 10.5488 16.1221 10.6192C16.1924 10.6895 16.2319 10.7849 16.2319 10.8843Z" stroke="white" stroke-width="1.5" stroke-linecap="round" stroke-linejoin="round"/>
</svg>
