<svg width="24" height="25" viewBox="0 0 24 25" fill="none" xmlns="http://www.w3.org/2000/svg">
<path fill-rule="evenodd" clip-rule="evenodd" d="M7.5 6.5V7.25H5.513C4.553 7.25 3.749 7.974 3.648 8.929L2.385 20.929C2.35753 21.1903 2.3853 21.4545 2.46651 21.7045C2.54773 21.9544 2.68057 22.1844 2.85642 22.3797C3.03227 22.575 3.2472 22.7311 3.48728 22.838C3.72736 22.9448 3.98721 23 4.25 23H19.75C20.0128 23 20.2726 22.9448 20.5127 22.838C20.7528 22.7311 20.9677 22.575 21.1436 22.3797C21.3194 22.1844 21.4523 21.9544 21.5335 21.7045C21.6147 21.4545 21.6425 21.1903 21.615 20.929L20.352 8.929C20.3036 8.46815 20.0862 8.04155 19.7418 7.73151C19.3974 7.42146 18.9504 7.24993 18.487 7.25H16.5V6.5C16.5 5.30653 16.0259 4.16193 15.182 3.31802C14.3381 2.47411 13.1935 2 12 2C10.8065 2 9.66193 2.47411 8.81802 3.31802C7.9741 4.16193 7.5 5.30653 7.5 6.5ZM12 3.5C11.2043 3.5 10.4413 3.81607 9.87868 4.37868C9.31607 4.94129 9 5.70435 9 6.5V7.25H15V6.5C15 5.70435 14.6839 4.94129 14.1213 4.37868C13.5587 3.81607 12.7956 3.5 12 3.5ZM9 11.75C9 12.5456 9.31607 13.3087 9.87868 13.8713C10.4413 14.4339 11.2043 14.75 12 14.75C12.7956 14.75 13.5587 14.4339 14.1213 13.8713C14.6839 13.3087 15 12.5456 15 11.75V11C15 10.8011 15.079 10.6103 15.2197 10.4697C15.3603 10.329 15.5511 10.25 15.75 10.25C15.9489 10.25 16.1397 10.329 16.2803 10.4697C16.421 10.6103 16.5 10.8011 16.5 11V11.75C16.5 12.9435 16.0259 14.0881 15.182 14.932C14.3381 15.7759 13.1935 16.25 12 16.25C10.8065 16.25 9.66193 15.7759 8.81802 14.932C7.9741 14.0881 7.5 12.9435 7.5 11.75V11C7.5 10.8011 7.57902 10.6103 7.71967 10.4697C7.86032 10.329 8.05109 10.25 8.25 10.25C8.44891 10.25 8.63968 10.329 8.78033 10.4697C8.92098 10.6103 9 10.8011 9 11V11.75Z" fill="#DB3C25"/>
</svg>
