<svg width="24" height="25" viewBox="0 0 24 25" fill="none" xmlns="http://www.w3.org/2000/svg">
<path fill-rule="evenodd" clip-rule="evenodd" d="M3 6.5C3 5.70435 3.31607 4.94129 3.87868 4.37868C4.44129 3.81607 5.20435 3.5 6 3.5H8.25C9.04565 3.5 9.80871 3.81607 10.3713 4.37868C10.9339 4.94129 11.25 5.70435 11.25 6.5V8.75C11.25 9.54565 10.9339 10.3087 10.3713 10.8713C9.80871 11.4339 9.04565 11.75 8.25 11.75H6C5.20435 11.75 4.44129 11.4339 3.87868 10.8713C3.31607 10.3087 3 9.54565 3 8.75V6.5ZM12.75 6.5C12.75 5.70435 13.0661 4.94129 13.6287 4.37868C14.1913 3.81607 14.9544 3.5 15.75 3.5H18C18.7956 3.5 19.5587 3.81607 20.1213 4.37868C20.6839 4.94129 21 5.70435 21 6.5V8.75C21 9.54565 20.6839 10.3087 20.1213 10.8713C19.5587 11.4339 18.7956 11.75 18 11.75H15.75C14.9544 11.75 14.1913 11.4339 13.6287 10.8713C13.0661 10.3087 12.75 9.54565 12.75 8.75V6.5ZM3 16.25C3 15.4544 3.31607 14.6913 3.87868 14.1287C4.44129 13.5661 5.20435 13.25 6 13.25H8.25C9.04565 13.25 9.80871 13.5661 10.3713 14.1287C10.9339 14.6913 11.25 15.4544 11.25 16.25V18.5C11.25 19.2956 10.9339 20.0587 10.3713 20.6213C9.80871 21.1839 9.04565 21.5 8.25 21.5H6C5.20435 21.5 4.44129 21.1839 3.87868 20.6213C3.31607 20.0587 3 19.2956 3 18.5V16.25ZM12.75 16.25C12.75 15.4544 13.0661 14.6913 13.6287 14.1287C14.1913 13.5661 14.9544 13.25 15.75 13.25H18C18.7956 13.25 19.5587 13.5661 20.1213 14.1287C20.6839 14.6913 21 15.4544 21 16.25V18.5C21 19.2956 20.6839 20.0587 20.1213 20.6213C19.5587 21.1839 18.7956 21.5 18 21.5H15.75C14.9544 21.5 14.1913 21.1839 13.6287 20.6213C13.0661 20.0587 12.75 19.2956 12.75 18.5V16.25Z" fill="#DB3C25"/>
</svg>
